<?xml version="1.0" encoding="UTF-8"?>
<svg id="_레이어_2" data-name="레이어 2" xmlns="http://www.w3.org/2000/svg" viewBox="0 0 70.7 73.39">
  <defs>
    <style>
      .cls-1 {
        stroke-width: 3.5px;
      }

      .cls-1, .cls-2 {
        fill: none;
        stroke: rgb(240, 128, 128);
        stroke-miterlimit: 10;
      }

      .cls-2 {
        stroke-width: 3px;
      }

      .cls-3 {
        fill: rgb(240, 128, 128);
        stroke-width: 0px;
      }
    </style>
  </defs>
  <g id="_이모티콘" data-name="이모티콘">
    <g>
      <ellipse class="cls-2" cx="35.35" cy="37.89" rx="33.85" ry="34"/>
      <path class="cls-3" d="M57.43,23.99c1.37,3.76-2.28,9.78-7.05,11.52s-8.83-1.48-10.2-5.24"/>
      <path class="cls-3" d="M13.26,23.99c-1.37,3.76,2.28,9.78,7.05,11.52,4.76,1.73,8.83-1.48,10.2-5.24"/>
      <path class="cls-3" d="M63.28,17.29c1.24-1.66,2.93-4.25,4.19-7.75,1.43-3.95,2.31-9.02,1.26-9.51-.86-.39-2.18,2.64-6.01,5.7-2.44,1.95-4.8,3.04-6.43,3.66"/>
      <path class="cls-3" d="M7.42,17.29c-1.24-1.5-2.93-3.84-4.19-7C1.79,6.73.91,2.14,1.96,1.71c.86-.35,2.18,2.39,6.01,5.15,2.44,1.76,4.8,2.74,6.43,3.3"/>
      <line class="cls-1" x1="30.67" y1="59.47" x2="30.67" y2="49.43"/>
      <line class="cls-1" x1="40.19" y1="49.43" x2="40.19" y2="59.81"/>
      <path class="cls-1" d="M50.58,49.57s-30.47,0-30.47,0h0c0,5.65,3.98,10.24,8.89,10.24h12.7c4.91,0,8.89-4.58,8.89-10.24,0,0,0,0,0,0Z"/>
    </g>
  </g>
</svg>