<?xml version="1.0" encoding="UTF-8"?>
<svg id="_레이어_2" data-name="레이어 2" xmlns="http://www.w3.org/2000/svg" viewBox="0 0 70.7 71">
  <defs>
    <style>
      .cls-1 {
        fill: none;
        stroke: rgb(71, 131, 174);
        stroke-miterlimit: 10;
        stroke-width: 3px;
      }

      .cls-2 {
        fill: rgb(71, 131, 174);
        stroke-width: 0px;
      }
    </style>
  </defs>
  <g id="_이모티콘" data-name="이모티콘">
    <g>
      <ellipse class="cls-1" cx="35.35" cy="35.5" rx="33.85" ry="34"/>
      <path class="cls-1" d="M51.1,46.88c-.6.74-6.44,7.52-15.75,7.52-9.31,0-15.15-6.78-15.75-7.52"/>
      <path class="cls-2" d="M23.28,37.22c2.22-2.09,5.46-6.08,6.41-9.1,1.11-3.19-.35-6.02-2.92-6.5-2.6-.48-3.87,1.1-3.87,1.1,0,0-1.33-1.47-3.9-1.05-2.54.57-3.71,3.28-2.63,6.5.92,2.88,4.22,6.93,6.22,9.02.25.28.41.28.7.03Z"/>
      <path class="cls-2" d="M47.7,37.22c2.22-2.09,5.46-6.08,6.41-9.1,1.11-3.19-.35-6.02-2.92-6.5-2.6-.48-3.87,1.1-3.87,1.1,0,0-1.33-1.47-3.9-1.05-2.54.57-3.71,3.28-2.63,6.5.92,2.88,4.22,6.93,6.22,9.02.25.28.41.28.7.03Z"/>
    </g>
  </g>
</svg>